<?xml version="1.0" encoding="UTF-8"?><svg id="Layer_2" xmlns="http://www.w3.org/2000/svg" viewBox="0 0 16 16"><defs><style>.cls-1{fill:#fff;}</style></defs><g id="Layer_1-2"><rect class="cls-1" width="16" height="16" rx="2" ry="2"/><path d="M5.97,11.04h-.56v1.99c0,.62.5,1.12,1.12,1.12h7.27c.62,0,1.12-.5,1.12-1.12V2.96c0-.62-.5-1.12-1.12-1.12h-7.27c-.62,0-1.12.5-1.12,1.12v1.99h.56v-1.99c0-.31.25-.56.56-.56h7.27c.31,0,.56.25.56.56v10.07c0,.31-.25.56-.56.56h-7.27c-.31,0-.56-.25-.56-.56v-1.99Z"/><path d="M6.53,4.08h7.27c.15,0,.28-.13.28-.28s-.13-.28-.28-.28h-7.27c-.15,0-.28.13-.28.28s.13.28.28.28Z"/><path d="M14.08,5.2c0-.15-.13-.28-.28-.28h-4.34v.56h4.34c.15,0,.28-.13.28-.28Z"/><path d="M14.08,6.6c0-.15-.13-.28-.28-.28h-3.64v.56h3.64c.15,0,.28-.13.28-.28Z"/><path d="M14.08,8c0-.15-.13-.28-.28-.28h-3.08v.56h3.08c.15,0,.28-.13.28-.28Z"/><path d="M14.08,9.4c0-.15-.13-.28-.28-.28h-3.64v.56h3.64c.15,0,.28-.13.28-.28Z"/><path d="M14.08,10.8c0-.15-.13-.28-.28-.28h-4.34v.56h4.34c.15,0,.28-.13.28-.28Z"/><path d="M14.08,12.2c0-.15-.13-.28-.28-.28h-7.27c-.15,0-.28.13-.28.28s.13.28.28.28h7.27c.15,0,.28-.13.28-.28Z"/><rect x="8.63" y="6.04" width=".56" height="3.92"/><rect x="9.47" y="7.3" width=".56" height="1.4"/><rect x="7.79" y="4.92" width=".56" height="6.15"/><rect x="6.95" y="5.48" width=".56" height="5.04"/><rect x="6.11" y="6.18" width=".56" height="3.64"/><rect x="5.27" y="6.88" width=".56" height="2.38"/><rect x="4.43" y="6.32" width=".56" height="3.36"/><rect x="3.59" y="4.36" width=".56" height="7.27"/><rect x="2.75" y="5.06" width=".56" height="5.87"/><rect x="1.92" y="5.9" width=".56" height="4.2"/><rect x="1.08" y="6.25" width=".56" height="3.5"/></g></svg>